<?xml version="1.0"?>
<svg width="640" height="160" xmlns="http://www.w3.org/2000/svg" xmlns:svg="http://www.w3.org/2000/svg">
 <!-- Created with SVG-edit - https://github.com/SVG-Edit/svgedit-->
 <defs>
  <filter height="200%" id="svg_7_blur" width="200%" x="-50%" y="-50%">
   <feGaussianBlur stdDeviation="0.9"/>
  </filter>
  <pattern height="100" id="gridpattern" patternUnits="userSpaceOnUse" width="100" x="0" y="0">
   <image height="100" id="svg_1" width="100" x="0" y="0"/>
  </pattern>
 </defs>
 <g class="layer">
  <title>Layer 1</title>
  <path d="m142.87118,88.94155c-6.60268,-1.87044 -9.23908,-7.01105 -9.23908,-7.01105s-2.9747,1.16438 -2.9747,-2.10579s2.9747,2.10579 5.9494,-10.52071c0,0 8.24751,-1.63921 6.60268,-15.19474l-1.98314,0c0,0 4.95201,-14.4928 0,-19.40219c-4.95784,-4.90939 -6.93514,-8.17956 -17.83655,-10.5207s-6.92931,-1.87457 -14.85602,-1.63509c-7.92671,0.23535 -14.53521,3.27017 -14.53521,4.90526c0,0 -4.95201,0.23535 -6.92931,1.63921c-1.98314,1.40387 -5.28447,7.94421 -5.28447,9.58342s1.65066,12.6265 3.30133,14.96352l-1.96563,0.46658c-1.65067,13.55552 6.60267,15.19473 6.60267,15.19473c2.96887,12.6265 5.94357,7.25053 5.94357,10.52071s-2.9747,2.10579 -2.9747,2.10579s-2.6364,5.14061 -9.23908,7.01105c-6.60267,1.86631 -43.25568,11.91631 -46.23622,14.0221c-2.98053,2.10992 -2.64223,11.92456 -2.64223,11.92456l157.17514,0c0,0 0.34413,-9.81464 -2.6364,-11.92456c-2.98637,-2.10579 -39.63938,-12.15579 -46.24205,-14.0221zm-72.73441,-0.71019c-0.57744,-0.74322 -0.86325,-1.27999 -0.86325,-1.27999s-2.51974,0.98683 -2.51974,-1.78373s2.51974,1.78373 5.03949,-8.91452c0,0 6.99347,-1.38735 5.59361,-12.87837l-1.67983,0c0,0 0.83408,-2.44024 1.38236,-5.50809c-0.02333,-1.27173 0.035,-2.62605 0.21581,-4.11249l0.22165,-1.75896c-0.12249,-2.03147 -0.62411,-3.87713 -1.81982,-5.06216c-4.19958,-4.1579 -5.87941,-6.9326 -15.11266,-8.91452c-9.23324,-1.98192 -5.87941,-1.58966 -12.59291,-1.38734c-6.71933,0.19819 -12.31877,2.77056 -12.31877,4.16203c0,0 -4.19958,0.1982 -5.87941,1.38735c-1.58068,1.11896 -4.11209,6.0366 -4.41539,7.78317l0,1.16025c0.27414,2.69624 1.50485,10.11194 2.73556,11.85851l-1.66817,0.39638c-1.39403,11.49102 5.59361,12.87837 5.59361,12.87837c2.51975,10.69825 5.03949,6.14395 5.03949,8.91452s-2.51974,1.78373 -2.51974,1.78373s-2.23395,4.36435 -7.83339,5.94163c-0.3558,0.0991 -0.81075,0.23123 -1.3532,0.37987l0,21.61121l3.35384,0c-0.16915,-5.27686 0.44912,-12.08559 4.35123,-14.83964c2.07646,-1.4658 8.88328,-3.87713 37.04963,-11.81721zm130.24533,-37.39227c-0.23331,-1.56076 -0.74076,-2.95224 -1.70316,-3.90604c-4.19375,-4.16203 -5.87941,-6.9326 -15.10682,-8.91452c-9.23908,-1.98192 -5.87942,-1.58966 -12.59875,-1.38734c-6.71349,0.19819 -12.31293,2.77056 -12.31293,4.16203c0,0 -4.19375,0.19819 -5.87942,1.38735c-1.58067,1.12309 -4.13542,6.07789 -4.42122,7.80795l0.19248,0l0.46662,3.76978c0.11665,0.9538 0.12832,1.80024 0.15748,2.66321c0.52495,2.74991 1.22488,5.57415 1.92481,6.56099l-1.66817,0.39638c-1.39402,11.49102 5.59945,12.87836 5.59945,12.87836c2.51974,10.69826 5.03366,6.14396 5.03366,8.91453s-2.51975,1.78373 -2.51975,1.78373s-0.30913,0.58631 -0.95074,1.3956c27.82223,7.84511 34.57072,10.23993 36.62385,11.7016c3.90794,2.75405 4.52038,9.55865 4.35123,14.83964l2.79972,0l0,-21.9085c-0.09332,-0.02477 -0.22164,-0.06193 -0.3033,-0.08671c-5.59361,-1.5814 -7.83339,-5.94163 -7.83339,-5.94163s-2.52558,0.98683 -2.52558,-1.78373s2.52558,1.78373 5.0395,-8.91452c0,0 4.68953,-0.94555 5.61694,-7.6015l0,-5.06629c-0.00584,-0.07432 -0.00584,-0.13626 -0.0175,-0.21058l-1.68567,0c0,0 1.25405,-3.67481 1.70317,-7.68408l0,-4.85571l0.0175,0l-0.00001,0z" fill="#7f7f7f" id="svg_2" opacity="0.75" stroke="#000000" stroke-linejoin="round" stroke-width="2"/>
  <text fill="#7f7f7f" filter="url(#svg_7_blur)" font-family="Serif" font-size="22" id="svg_7" opacity="0.75" stroke="#000000" stroke-linejoin="round" stroke-width="0" text-anchor="middle" transform="matrix(1.71548 0 0 2.08 -199.012 -214.86)" x="180.08293" xml:space="preserve" y="176.90385">StivenOssa</text>
 </g>
</svg>